# xmcd
#
# Track frame offsets:
#	150
#	13887
#	25537
#	36305
#	57897
#	81302
#	99940
#	111902
#	132912
#	149175
#	172332
#	194917
#	210035
#	221522
#	240547
#	258702
#	277115
#	289817
#	306632
#
# Disc length: 4526 seconds
#
# Revision: 1
# Processed by: cddbd v1.4b41PL2 Copyright (c) Steve Scherf et al.
# Submitted via: audiograbber 1.80
#
DISCID=3111ac13
DTITLE=James Cotton - Live And On The Move
DYEAR=1900
DGENRE=
TTITLE0=Cotton Boogie
TTITLE1=One  More Mile
TTITLE2=All Walks Of Life
TTITLE3=Born In Missouri
TTITLE4=Flip Flop and Fly
TTITLE5=Mojo
TTITLE6=Rocket 88
TTITLE7=Goodbye My Lady
TTITLE8=I Don't Know
TTITLE9=Caladonia
TTITLE10=Boogie Thing
TTITLE11=Good Morning Lil' School Girl
TTITLE12=Oh Baby You Don't Have To Go
TTITLE13=Help Me
TTITLE14=Fannie Mae
TTITLE15=Hot 'N' Cold
TTITLE16=Teeny Weenie Bit
TTITLE17=Blow Wind Blow
TTITLE18=How Long Can A Fool Go Wrong
EXTD=
EXTT0=
EXTT1=
EXTT2=
EXTT3=
EXTT4=
EXTT5=
EXTT6=
EXTT7=
EXTT8=
EXTT9=
EXTT10=
EXTT11=
EXTT12=
EXTT13=
EXTT14=
EXTT15=
EXTT16=
EXTT17=
EXTT18=
PLAYORDER=
